<svg xmlns="http://www.w3.org/2000/svg" width="25.233" height="20.103" viewBox="0 0 25.233 20.103">
  <path id="graduation-hat" d="M23.649,64.474v-6.75l.281-.081c1.077-.324,1.3-.871,1.3-1.273s-.226-.951-1.3-1.276l-9.218-2.765a7.588,7.588,0,0,0-2.095-.264,7.589,7.589,0,0,0-2.1.264L1.3,55.094c-1.077.324-1.3.871-1.3,1.273s.226.95,1.3,1.273l3.447,1.034V64.4c0,.692.45,1.667,2.6,2.381a17.323,17.323,0,0,0,5.271.73,17.323,17.323,0,0,0,5.271-.73c2.143-.714,2.6-1.689,2.6-2.381V58.674l1.688-.507v6.307a2.327,2.327,0,0,0-1.584,2.2v3.167a2.323,2.323,0,0,0,4.646,0V66.676a2.327,2.327,0,0,0-1.584-2.2Zm-12.7-10.729a6.188,6.188,0,0,1,1.671-.2,6.188,6.188,0,0,1,1.671.2l8.737,2.622-3.5,1.05h-.006l-5.234,1.569a6.189,6.189,0,0,1-1.671.2,6.189,6.189,0,0,1-1.668-.2L5.712,57.419H5.707l-3.5-1.052ZM19.006,64.4c0,.1-.268.541-1.581.978a15.831,15.831,0,0,1-4.8.658,15.831,15.831,0,0,1-4.8-.658c-1.313-.438-1.581-.883-1.581-.978v-5.28l4.292,1.288a7.587,7.587,0,0,0,2.095.264,7.588,7.588,0,0,0,2.095-.264l4.292-1.288Zm4.751,5.445a.844.844,0,1,1-1.688,0V66.676a.844.844,0,0,1,1.688,0Z" transform="translate(0 -52.063)" fill="#fff"/>
</svg>
