<svg xmlns="http://www.w3.org/2000/svg" width="19.884" height="20.103" viewBox="0 0 19.884 20.103">
  <g id="pie-chart" transform="translate(-0.001)">
    <g id="Group_33" data-name="Group 33" transform="translate(6.337 3.42)">
      <path id="Path_29" data-name="Path 29" d="M166.852,103.788a8.273,8.273,0,0,1-4.95-1.627l-.474-.349,4.834-6.553V87.106h.589a8.344,8.344,0,0,1,0,16.682Zm-3.763-2.244a7.163,7.163,0,1,0,4.351-13.236v7.338Z" transform="translate(-161.429 -87.106)" fill="#fff"/>
    </g>
    <g id="Group_34" data-name="Group 34" transform="translate(0.001 4.659)">
      <path id="Path_30" data-name="Path 30" d="M3.865,131.646l-.474-.35a8.344,8.344,0,0,1-1.369-12.159l.384-.446L9.139,124.5ZM2.547,120.369a7.163,7.163,0,0,0,1.085,9.611l3.912-5.3Z" transform="translate(-0.001 -118.691)" fill="#fff"/>
    </g>
    <g id="Group_35" data-name="Group 35" transform="translate(3.163)">
      <path id="Path_31" data-name="Path 31" d="M86.813,8.237,80.579,2.858l.384-.446A6.943,6.943,0,0,1,86.226,0h.589ZM82.261,2.756l3.374,2.91V1.208a5.765,5.765,0,0,0-3.373,1.547Z" transform="translate(-80.579 0)" fill="#fff"/>
    </g>
  </g>
</svg>
