<svg id="review" xmlns="http://www.w3.org/2000/svg" width="21.753" height="20.103" viewBox="0 0 21.753 20.103">
  <path id="Path_27" data-name="Path 27" d="M20.368,8.7h-3.35V2.279A1.781,1.781,0,0,0,15.237.5H1.779A1.781,1.781,0,0,0,0,2.279v9.814a1.781,1.781,0,0,0,1.779,1.779H3.086l.95,3.8a.654.654,0,0,0,1.137.257l3.344-4.053h1.75V16.44a1.383,1.383,0,0,0,1.383,1.384h4.4l2.1,2.542a.654.654,0,0,0,1.137-.257l.572-2.288h.515a1.384,1.384,0,0,0,1.383-1.383V10.081A1.383,1.383,0,0,0,20.37,8.7ZM8.209,12.567a.654.654,0,0,0-.5.237L4.985,16.1l-.759-3.036a.654.654,0,0,0-.633-.49H1.779a.474.474,0,0,1-.474-.474V2.279a.474.474,0,0,1,.474-.474H15.237a.474.474,0,0,1,.474.474v9.814a.474.474,0,0,1-.474.474Zm12.237,3.872a.077.077,0,0,1-.077.077H19.344a.654.654,0,0,0-.633.49l-.382,1.525-1.471-1.782a.654.654,0,0,0-.5-.237H11.648a.077.077,0,0,1-.077-.077V13.872h3.665a1.781,1.781,0,0,0,1.779-1.779V10h3.35a.077.077,0,0,1,.077.077Zm0,0" transform="translate(0 -0.5)" fill="#fff"/>
  <path id="Path_28" data-name="Path 28" d="M111.531,70.872a.654.654,0,0,1-.3-.075l-1.783-.937-1.784.937a.654.654,0,0,1-.95-.686l.341-1.986-1.443-1.406a.654.654,0,0,1,.362-1.113l1.994-.29.892-1.807a.654.654,0,0,1,1.17,0l.892,1.807,1.994.29a.654.654,0,0,1,.362,1.113l-1.443,1.406.341,1.986a.654.654,0,0,1-.643.763ZM107.469,66.7l.742.723a.654.654,0,0,1,.188.578l-.175,1.021.917-.482a.654.654,0,0,1,.607,0l.917.482-.175-1.021a.654.654,0,0,1,.188-.578l.742-.723-1.025-.149a.654.654,0,0,1-.49-.357l-.458-.929-.458.929a.654.654,0,0,1-.49.357Zm0,0" transform="translate(-100.935 -60.484)" fill="#fff"/>
</svg>
