<svg id="shape" xmlns="http://www.w3.org/2000/svg" width="19.095" height="19.099" viewBox="0 0 19.095 19.099">
  <g id="Group_30" data-name="Group 30" transform="translate(0 0)">
    <g id="Group_29" data-name="Group 29">
      <path id="Path_23" data-name="Path 23" d="M19.155,4.776A2.387,2.387,0,0,0,14.59,3.81L12.552,3.47l-.2,1.177,2.048.342a2.387,2.387,0,0,0,1.473,2l-.581,4.384a2.382,2.382,0,0,0-2.1,2.359v.009L6.309,15.55a2.375,2.375,0,0,0-1.765-1.193L3.326,4.6a2.393,2.393,0,0,0,1.3-1.249l1.844.308.2-1.177-1.853-.31A2.381,2.381,0,1,0,2.141,4.743l1.22,9.75A2.387,2.387,0,1,0,6.625,16.71V16.7L13.5,14.887a2.381,2.381,0,1,0,2.969-3.368l.581-4.384A2.382,2.382,0,0,0,19.155,4.776ZM2.448,3.583A1.193,1.193,0,1,1,3.641,2.39,1.193,1.193,0,0,1,2.448,3.583ZM4.238,17.9A1.193,1.193,0,1,1,5.431,16.71,1.193,1.193,0,0,1,4.238,17.9Zm12.531-4.177a1.193,1.193,0,1,1-1.193-1.193A1.193,1.193,0,0,1,16.769,13.727Zm-1.193-8.95A1.193,1.193,0,1,1,16.769,5.97,1.193,1.193,0,0,1,15.575,4.776Z" transform="translate(-0.06 0)" fill="#fff"/>
      <rect id="Rectangle_3" data-name="Rectangle 3" width="1.552" height="1.552" transform="matrix(0.986, 0.165, -0.165, 0.986, 9.966, 3.005)" fill="#fff"/>
      <rect id="Rectangle_4" data-name="Rectangle 4" width="1.552" height="1.552" transform="translate(7.663 3.489) rotate(9.486)" fill="#fff"/>
    </g>
  </g>
</svg>
