<svg xmlns="http://www.w3.org/2000/svg" xmlns:xlink="http://www.w3.org/1999/xlink" version="1.1" id="Layer_1" x="0px" y="0px" viewBox="0 0 1080 1080" style="enable-background:new 0 0 1080 1080;" xml:space="preserve">
<style type="text/css">
	.st0{opacity:0.51;fill:#CCE9FF;}
	.st1{fill:#F7F7F7;}
	.st2{fill:#084970;}
	.st3{fill:#D3D3D3;}
	.st4{fill:#CCE9FF;}
	.st5{fill:#2A94F4;}
	.st6{fill:#FFBE55;}
	.st7{fill:none;stroke:#FFFFFF;stroke-width:1.0626;stroke-miterlimit:10;}
	.st8{fill:#0E538C;}
	.st9{fill:none;stroke:#FFFFFF;stroke-miterlimit:10;}
	.st10{fill:#2890DD;}
	.st11{fill:#FEE3CA;}
	.st12{fill:#EACDB5;}
	.st13{fill:#474747;}
	.st14{fill:#073951;}
	.st15{fill:#DB9E46;}
</style>
<path class="st0" d="M996.55,433.72c0,0,131.86,243.87-64.25,384.63S629.38,763.3,472.28,930.12  C356.4,1053.17-35.21,842.3,128.91,632.7s299.69-230.47,302.78-453.4C434.78-43.63,814.17,34.54,996.55,433.72z"/>
<g>
	<path class="st1" d="M182.93,167.38h714.13c15.45,0,27.98,12.53,27.98,27.98v505.97c0,15.45-12.53,27.98-27.98,27.98H182.93   c-15.45,0-27.98-12.53-27.98-27.98V195.36C154.95,179.91,167.48,167.38,182.93,167.38z"/>
	<path class="st2" d="M925.05,193.65c0-14.51-10.18-26.27-22.75-26.27H177.7c-12.56,0-22.75,11.76-22.75,26.27v499.88h770.09V193.65   z"/>
	<rect x="185.41" y="208.95" class="st3" width="712.2" height="443.89"/>
	<g>
		<path class="st4" d="M554.89,508.33H73c-9.49,0-17.17-7.69-17.17-17.17V244.49c0-9.49,7.69-17.17,17.17-17.17h481.89    c9.49,0,17.17,7.69,17.17,17.17v246.66C572.07,500.64,564.38,508.33,554.89,508.33z"/>
		<g>
			<path class="st5" d="M279.77,417.33v-24.55c0-0.56-0.47-1.02-1.04-1.02s-1.04,0.46-1.04,1.02v24.55     c-1.88,0.18-3.37,1.72-3.37,3.65v18.28c0,1.93,1.49,3.46,3.37,3.65v11.01c0,0.56,0.47,1.02,1.04,1.02s1.04-0.46,1.04-1.02V442.9     c1.88-0.18,3.37-1.72,3.37-3.65v-18.28C283.14,419.04,281.65,417.51,279.77,417.33z"/>
			<path class="st5" d="M298.6,381.59v-24.55c0-0.56-0.47-1.02-1.04-1.02c-0.57,0-1.04,0.46-1.04,1.02v24.55     c-1.88,0.18-3.37,1.72-3.37,3.65v45.37c0,1.93,1.49,3.46,3.37,3.65v11.01c0,0.56,0.47,1.02,1.04,1.02c0.58,0,1.04-0.46,1.04-1.02     v-11.01c1.88-0.18,3.37-1.72,3.37-3.65v-45.37C301.97,383.31,300.48,381.78,298.6,381.59z"/>
			<path class="st6" d="M317.43,355.55v-11.01c0-0.56-0.47-1.02-1.04-1.02c-0.58,0-1.04,0.45-1.04,1.02v11.01     c-1.88,0.18-3.37,1.72-3.37,3.65v86.01c0,1.93,1.49,3.46,3.37,3.65v24.56c0,0.56,0.47,1.02,1.04,1.02c0.58,0,1.04-0.45,1.04-1.02     v-24.56c1.88-0.18,3.37-1.72,3.37-3.65V359.2C320.8,357.27,319.31,355.73,317.43,355.55z"/>
			<path class="st5" d="M336.26,380.61V369.6c0-0.56-0.47-1.02-1.04-1.02c-0.57,0-1.04,0.45-1.04,1.02v11.01     c-1.88,0.18-3.37,1.72-3.37,3.65v45.37c0,1.93,1.49,3.46,3.37,3.65v11.01c0,0.56,0.47,1.02,1.04,1.02c0.58,0,1.04-0.46,1.04-1.02     v-11.01c1.88-0.18,3.37-1.72,3.37-3.65v-45.37C339.63,382.33,338.14,380.79,336.26,380.61z"/>
			<path class="st5" d="M355.09,401.81V390.8c0-0.56-0.47-1.02-1.04-1.02s-1.04,0.46-1.04,1.02v11.01     c-1.88,0.18-3.37,1.72-3.37,3.65v31.82c0,1.93,1.49,3.46,3.37,3.65v38.1c0,0.56,0.47,1.02,1.04,1.02s1.04-0.46,1.04-1.02v-38.1     c1.88-0.18,3.37-1.72,3.37-3.65v-31.82C358.46,403.53,356.97,401.99,355.09,401.81z"/>
			<path class="st5" d="M373.91,413.16v-11.01c0-0.56-0.47-1.02-1.04-1.02c-0.57,0-1.04,0.45-1.04,1.02v11.01     c-1.88,0.18-3.37,1.72-3.37,3.65v18.28c0,1.93,1.49,3.46,3.37,3.65v11.01c0,0.56,0.47,1.02,1.04,1.02c0.58,0,1.04-0.46,1.04-1.02     v-11.01c1.88-0.18,3.37-1.72,3.37-3.65v-18.28C377.29,414.88,375.79,413.34,373.91,413.16z"/>
			<path class="st5" d="M392.74,415.12v-11.01c0-0.56-0.47-1.02-1.04-1.02s-1.04,0.46-1.04,1.02v11.01     c-1.88,0.18-3.37,1.72-3.37,3.65v4.73c0,1.93,1.49,3.46,3.37,3.65v11.01c0,0.56,0.47,1.02,1.04,1.02s1.04-0.46,1.04-1.02v-11.01     c1.88-0.18,3.37-1.72,3.37-3.65v-4.73C396.12,416.84,394.62,415.3,392.74,415.12z"/>
			<path class="st6" d="M411.57,369.76v-24.55c0-0.56-0.47-1.02-1.04-1.02c-0.57,0-1.04,0.46-1.04,1.02v24.55     c-1.88,0.18-3.37,1.72-3.37,3.65v31.82c0,1.93,1.49,3.46,3.37,3.65v11.01c0,0.56,0.47,1.02,1.04,1.02c0.58,0,1.04-0.46,1.04-1.02     v-11.01c1.88-0.18,3.37-1.72,3.37-3.65v-31.82C414.95,371.48,413.45,369.95,411.57,369.76z"/>
			<path class="st5" d="M430.4,347.73v-11.01c0-0.56-0.47-1.02-1.04-1.02s-1.04,0.46-1.04,1.02v11.01     c-1.88,0.18-3.37,1.72-3.37,3.65v45.37c0,1.93,1.49,3.46,3.37,3.65v11.01c0,0.56,0.47,1.02,1.04,1.02s1.04-0.46,1.04-1.02v-11.01     c1.88-0.18,3.37-1.72,3.37-3.65v-45.37C433.78,349.45,432.28,347.92,430.4,347.73z"/>
			<path class="st6" d="M449.23,311.99v-11.01c0-0.56-0.47-1.02-1.04-1.02c-0.57,0-1.04,0.46-1.04,1.02v11.01     c-1.88,0.18-3.37,1.72-3.37,3.65v86.01c0,1.93,1.49,3.47,3.37,3.65v11.01c0,0.56,0.47,1.02,1.04,1.02c0.58,0,1.04-0.45,1.04-1.02     v-11.01c1.88-0.18,3.37-1.72,3.37-3.65v-86.01C452.6,313.71,451.11,312.17,449.23,311.99z"/>
			<path class="st5" d="M468.06,333.78v-24.56c0-0.56-0.47-1.02-1.04-1.02s-1.04,0.45-1.04,1.02v24.56     c-1.88,0.18-3.37,1.72-3.37,3.65v31.82c0,1.93,1.49,3.46,3.37,3.65v24.55c0,0.56,0.47,1.02,1.04,1.02s1.04-0.46,1.04-1.02V372.9     c1.88-0.18,3.37-1.72,3.37-3.65v-31.82C471.43,335.5,469.94,333.96,468.06,333.78z"/>
			<path class="st5" d="M486.89,303.93v-11.01c0-0.56-0.47-1.02-1.04-1.02c-0.57,0-1.04,0.46-1.04,1.02v11.01     c-1.88,0.18-3.37,1.72-3.37,3.65v4.73c0,1.93,1.49,3.46,3.37,3.65v11.01c0,0.56,0.47,1.02,1.04,1.02c0.58,0,1.04-0.45,1.04-1.02     v-11.01c1.88-0.18,3.37-1.72,3.37-3.65v-4.73C490.26,305.65,488.77,304.11,486.89,303.93z"/>
			<path class="st5" d="M505.72,289.4V278.4c0-0.56-0.47-1.02-1.04-1.02s-1.04,0.46-1.04,1.02v11.01c-1.88,0.18-3.37,1.72-3.37,3.65     v45.37c0,1.93,1.49,3.46,3.37,3.65v11.01c0,0.56,0.47,1.02,1.04,1.02s1.04-0.46,1.04-1.02v-11.01c1.88-0.18,3.37-1.72,3.37-3.65     v-45.37C509.09,291.12,507.6,289.58,505.72,289.4z"/>
			<path class="st6" d="M524.55,265.25v-11.01c0-0.56-0.47-1.02-1.04-1.02c-0.57,0-1.04,0.46-1.04,1.02v11.01     c-1.88,0.18-3.37,1.72-3.37,3.65v72.46c0,1.93,1.49,3.46,3.37,3.65v11.01c0,0.56,0.47,1.02,1.04,1.02c0.58,0,1.04-0.46,1.04-1.02     v-11.01c1.88-0.18,3.37-1.72,3.37-3.65V268.9C527.92,266.97,526.43,265.43,524.55,265.25z"/>
			<path class="st5" d="M543.38,297.54v-51.65c0-0.56-0.47-1.02-1.04-1.02s-1.04,0.45-1.04,1.02v51.65     c-1.88,0.18-3.37,1.72-3.37,3.65v113.1c0,1.93,1.49,3.46,3.37,3.65v24.56c0,0.56,0.47,1.02,1.04,1.02s1.04-0.45,1.04-1.02v-24.56     c1.88-0.18,3.37-1.72,3.37-3.65v-113.1C546.75,299.26,545.26,297.72,543.38,297.54z"/>
		</g>
		<rect x="83.09" y="257.9" class="st5" width="172.23" height="11.31"/>
		<rect x="83.09" y="278.6" class="st6" width="110.67" height="11.31"/>
		<rect x="83.09" y="319.49" class="st6" width="138.49" height="11.31"/>
		<rect x="83.09" y="299.47" class="st5" width="150.44" height="11.31"/>
		<g>
			<path class="st5" d="M146.33,352.53c-16.75,4.2-31.92,14.75-41.55,30.7c-19.35,32.04-9.07,73.71,22.98,93.06     c24.28,14.66,54.07,12.3,75.51-3.64l-40.47-54.38L146.33,352.53z"/>
			<path class="st6" d="M226.7,395.69c-5.04-14.29-14.88-26.99-28.86-35.43c-16.09-9.72-34.61-11.96-51.51-7.73l16.47,65.75     L226.7,395.69z"/>
			<path class="st5" d="M226.7,395.69l-63.91,22.59l40.47,54.38c6.85-5.1,12.86-11.57,17.55-19.33     C231.72,435.26,233.21,414.15,226.7,395.69z"/>
		</g>
	</g>
	<g>
		<path class="st4" d="M987.47,585.47H622.06c-8.17,0-14.79-6.62-14.79-14.79V328.04c0-8.17,6.62-14.79,14.79-14.79h365.41    c8.17,0,14.79,6.62,14.79,14.79v242.64C1002.25,578.85,995.63,585.47,987.47,585.47z"/>
		<g>
			<g>
				<path class="st6" d="M631.8,546.3c0-0.27,0.22-0.49,0.49-0.49l0,0c0.27,0,0.51,0.22,0.51,0.49l0,0c0,0.27-0.23,0.51-0.51,0.51      l0,0C632.02,546.8,631.8,546.57,631.8,546.3z M631.8,543.66c0-0.29,0.22-0.51,0.49-0.51l0,0c0.27,0,0.51,0.22,0.51,0.51l0,0      c0,0.27-0.23,0.49-0.51,0.49l0,0C632.02,544.15,631.8,543.93,631.8,543.66z M631.8,541.01c0-0.27,0.22-0.49,0.49-0.49l0,0      c0.27,0,0.51,0.22,0.51,0.49l0,0c0,0.27-0.23,0.49-0.51,0.49l0,0C632.02,541.5,631.8,541.28,631.8,541.01z M631.8,538.36      c0-0.27,0.22-0.49,0.49-0.49l0,0c0.27,0,0.51,0.22,0.51,0.49l0,0c0,0.27-0.23,0.49-0.51,0.49l0,0      C632.02,538.86,631.8,538.63,631.8,538.36z M631.8,535.71c0-0.27,0.22-0.49,0.49-0.49l0,0c0.27,0,0.51,0.22,0.51,0.49l0,0      c0,0.27-0.23,0.49-0.51,0.49l0,0C632.02,536.21,631.8,535.99,631.8,535.71z"/>
			</g>
			<g>
				<path class="st6" d="M687,546.61c0-0.27,0.22-0.49,0.51-0.49l0,0c0.27,0,0.49,0.22,0.49,0.49l0,0c0,0.27-0.22,0.49-0.49,0.49      l0,0C687.22,547.1,687,546.88,687,546.61z M687,543.96c0-0.27,0.22-0.49,0.51-0.49l0,0c0.27,0,0.49,0.22,0.49,0.49l0,0      c0,0.29-0.22,0.51-0.49,0.51l0,0C687.22,544.47,687,544.24,687,543.96z M687,541.32c0-0.29,0.22-0.51,0.51-0.51l0,0      c0.27,0,0.49,0.22,0.49,0.51l0,0c0,0.27-0.22,0.49-0.49,0.49l0,0C687.22,541.82,687,541.6,687,541.32z M687,538.67      c0-0.27,0.22-0.49,0.51-0.49l0,0c0.27,0,0.49,0.22,0.49,0.49l0,0c0,0.27-0.22,0.49-0.49,0.49l0,0      C687.22,539.17,687,538.95,687,538.67z M687,536.02c0-0.27,0.22-0.49,0.51-0.49l0,0c0.27,0,0.49,0.22,0.49,0.49l0,0      c0,0.27-0.22,0.49-0.49,0.49l0,0C687.22,536.52,687,536.3,687,536.02z M687,533.38c0-0.27,0.22-0.49,0.51-0.49l0,0      c0.27,0,0.49,0.22,0.49,0.49l0,0c0,0.27-0.22,0.49-0.49,0.49l0,0C687.22,533.87,687,533.65,687,533.38z M687,530.74      c0-0.29,0.22-0.51,0.51-0.51l0,0c0.27,0,0.49,0.22,0.49,0.51l0,0c0,0.27-0.22,0.49-0.49,0.49l0,0      C687.22,531.23,687,531.01,687,530.74z M687,528.09c0-0.27,0.22-0.49,0.51-0.49l0,0c0.27,0,0.49,0.22,0.49,0.49l0,0      c0,0.27-0.22,0.49-0.49,0.49l0,0C687.22,528.58,687,528.36,687,528.09z M687,525.44c0-0.27,0.22-0.49,0.51-0.49l0,0      c0.27,0,0.49,0.22,0.49,0.49l0,0c0,0.27-0.22,0.49-0.49,0.49l0,0C687.22,525.94,687,525.71,687,525.44z M687,522.79      c0-0.27,0.22-0.49,0.51-0.49l0,0c0.27,0,0.49,0.22,0.49,0.49l0,0c0,0.27-0.22,0.51-0.49,0.51l0,0      C687.22,523.3,687,523.07,687,522.79z M687,520.16c0-0.29,0.22-0.51,0.51-0.51l0,0c0.27,0,0.49,0.22,0.49,0.51l0,0      c0,0.27-0.22,0.49-0.49,0.49l0,0C687.22,520.65,687,520.43,687,520.16z M687,517.51c0-0.27,0.22-0.49,0.51-0.49l0,0      c0.27,0,0.49,0.22,0.49,0.49l0,0c0,0.27-0.22,0.49-0.49,0.49l0,0C687.22,518,687,517.78,687,517.51z M687,514.86      c0-0.27,0.22-0.49,0.51-0.49l0,0c0.27,0,0.49,0.22,0.49,0.49l0,0c0,0.27-0.22,0.49-0.49,0.49l0,0      C687.22,515.35,687,515.13,687,514.86z M687,512.21c0-0.27,0.22-0.49,0.51-0.49l0,0c0.27,0,0.49,0.22,0.49,0.49l0,0      c0,0.27-0.22,0.49-0.49,0.49l0,0C687.22,512.7,687,512.48,687,512.21z M687,509.56c0-0.27,0.22-0.49,0.51-0.49l0,0      c0.27,0,0.49,0.22,0.49,0.49l0,0c0,0.29-0.22,0.51-0.49,0.51l0,0C687.22,510.07,687,509.85,687,509.56z M687,506.92      c0-0.29,0.22-0.51,0.51-0.51l0,0c0.27,0,0.49,0.22,0.49,0.51l0,0c0,0.27-0.22,0.49-0.49,0.49l0,0      C687.22,507.42,687,507.2,687,506.92z M687,504.28c0-0.27,0.22-0.49,0.51-0.49l0,0c0.27,0,0.49,0.22,0.49,0.49l0,0      c0,0.27-0.22,0.49-0.49,0.49l0,0C687.22,504.77,687,504.55,687,504.28z M687,501.63c0-0.27,0.22-0.49,0.51-0.49l0,0      c0.27,0,0.49,0.22,0.49,0.49l0,0c0,0.27-0.22,0.49-0.49,0.49l0,0C687.22,502.12,687,501.9,687,501.63z M687,498.98      c0-0.27,0.22-0.49,0.51-0.49l0,0c0.27,0,0.49,0.22,0.49,0.49l0,0c0,0.27-0.22,0.49-0.49,0.49l0,0      C687.22,499.47,687,499.25,687,498.98z"/>
			</g>
			<g>
				<path class="st6" d="M744.6,546.19c0-0.27,0.22-0.49,0.49-0.49l0,0c0.29,0,0.51,0.22,0.51,0.49l0,0c0,0.27-0.22,0.49-0.51,0.49      l0,0C744.82,546.69,744.6,546.47,744.6,546.19z M744.6,543.54c0-0.27,0.22-0.49,0.49-0.49l0,0c0.29,0,0.51,0.22,0.51,0.49l0,0      c0,0.27-0.22,0.49-0.51,0.49l0,0C744.82,544.04,744.6,543.82,744.6,543.54z M744.6,540.89c0-0.27,0.22-0.49,0.49-0.49l0,0      c0.29,0,0.51,0.22,0.51,0.49l0,0c0,0.29-0.22,0.51-0.51,0.51l0,0C744.82,541.4,744.6,541.18,744.6,540.89z M744.6,538.26      c0-0.27,0.22-0.49,0.49-0.49l0,0c0.29,0,0.51,0.22,0.51,0.49l0,0c0,0.27-0.22,0.49-0.51,0.49l0,0      C744.82,538.75,744.6,538.53,744.6,538.26z M744.6,535.61c0-0.27,0.22-0.49,0.49-0.49l0,0c0.29,0,0.51,0.22,0.51,0.49l0,0      c0,0.27-0.22,0.49-0.51,0.49l0,0C744.82,536.1,744.6,535.88,744.6,535.61z M744.6,532.96c0-0.27,0.22-0.49,0.49-0.49l0,0      c0.29,0,0.51,0.22,0.51,0.49l0,0c0,0.27-0.22,0.49-0.51,0.49l0,0C744.82,533.45,744.6,533.23,744.6,532.96z M744.6,530.31      c0-0.27,0.22-0.49,0.49-0.49l0,0c0.29,0,0.51,0.22,0.51,0.49l0,0c0,0.29-0.22,0.51-0.51,0.51l0,0      C744.82,530.82,744.6,530.6,744.6,530.31z M744.6,527.68c0-0.27,0.22-0.49,0.49-0.49l0,0c0.29,0,0.51,0.22,0.51,0.49l0,0      c0,0.27-0.22,0.49-0.51,0.49l0,0C744.82,528.17,744.6,527.95,744.6,527.68z M744.6,525.03c0-0.27,0.22-0.49,0.49-0.49l0,0      c0.29,0,0.51,0.22,0.51,0.49l0,0c0,0.27-0.22,0.49-0.51,0.49l0,0C744.82,525.52,744.6,525.3,744.6,525.03z M744.6,522.38      c0-0.27,0.22-0.49,0.49-0.49l0,0c0.29,0,0.51,0.22,0.51,0.49l0,0c0,0.27-0.22,0.49-0.51,0.49l0,0      C744.82,522.87,744.6,522.65,744.6,522.38z M744.6,519.73c0-0.27,0.22-0.49,0.49-0.49l0,0c0.29,0,0.51,0.22,0.51,0.49l0,0      c0,0.29-0.22,0.51-0.51,0.51l0,0C744.82,520.23,744.6,520.01,744.6,519.73z M744.6,517.09c0-0.27,0.22-0.51,0.49-0.51l0,0      c0.29,0,0.51,0.23,0.51,0.51l0,0c0,0.27-0.22,0.49-0.51,0.49l0,0C744.82,517.59,744.6,517.37,744.6,517.09z M744.6,514.44      c0-0.27,0.22-0.49,0.49-0.49l0,0c0.29,0,0.51,0.22,0.51,0.49l0,0c0,0.27-0.22,0.49-0.51,0.49l0,0      C744.82,514.94,744.6,514.72,744.6,514.44z M744.6,511.79c0-0.27,0.22-0.49,0.49-0.49l0,0c0.29,0,0.51,0.22,0.51,0.49l0,0      c0,0.27-0.22,0.49-0.51,0.49l0,0C744.82,512.29,744.6,512.07,744.6,511.79z M744.6,509.15c0-0.27,0.22-0.49,0.49-0.49l0,0      c0.29,0,0.51,0.22,0.51,0.49l0,0c0,0.27-0.22,0.51-0.51,0.51l0,0C744.82,509.65,744.6,509.42,744.6,509.15z M744.6,506.5      c0-0.27,0.22-0.49,0.49-0.49l0,0c0.29,0,0.51,0.22,0.51,0.49l0,0c0,0.29-0.22,0.51-0.51,0.51l0,0      C744.82,507,744.6,506.78,744.6,506.5z M744.6,503.86c0-0.27,0.22-0.51,0.49-0.51l0,0c0.29,0,0.51,0.23,0.51,0.51l0,0      c0,0.27-0.22,0.49-0.51,0.49l0,0C744.82,504.35,744.6,504.13,744.6,503.86z M744.6,501.21c0-0.27,0.22-0.49,0.49-0.49l0,0      c0.29,0,0.51,0.22,0.51,0.49l0,0c0,0.27-0.22,0.49-0.51,0.49l0,0C744.82,501.7,744.6,501.48,744.6,501.21z M744.6,498.56      c0-0.27,0.22-0.49,0.49-0.49l0,0c0.29,0,0.51,0.22,0.51,0.49l0,0c0,0.27-0.22,0.49-0.51,0.49l0,0      C744.82,499.06,744.6,498.83,744.6,498.56z M744.6,495.91c0-0.27,0.22-0.49,0.49-0.49l0,0c0.29,0,0.51,0.22,0.51,0.49l0,0      c0,0.27-0.22,0.51-0.51,0.51l0,0C744.82,496.42,744.6,496.19,744.6,495.91z M744.6,493.28c0-0.29,0.22-0.51,0.49-0.51l0,0      c0.29,0,0.51,0.22,0.51,0.51l0,0c0,0.27-0.22,0.49-0.51,0.49l0,0C744.82,493.77,744.6,493.55,744.6,493.28z M744.6,490.63      c0-0.27,0.22-0.51,0.49-0.51l0,0c0.29,0,0.51,0.23,0.51,0.51l0,0c0,0.27-0.22,0.49-0.51,0.49l0,0      C744.82,491.12,744.6,490.9,744.6,490.63z M744.6,487.98c0-0.27,0.22-0.49,0.49-0.49l0,0c0.29,0,0.51,0.22,0.51,0.49l0,0      c0,0.27-0.22,0.49-0.51,0.49l0,0C744.82,488.47,744.6,488.25,744.6,487.98z M744.6,485.33c0-0.27,0.22-0.49,0.49-0.49l0,0      c0.29,0,0.51,0.22,0.51,0.49l0,0c0,0.27-0.22,0.49-0.51,0.49l0,0C744.82,485.82,744.6,485.6,744.6,485.33z M744.6,482.68      c0-0.27,0.22-0.49,0.49-0.49l0,0c0.29,0,0.51,0.22,0.51,0.49l0,0c0,0.27-0.22,0.51-0.51,0.51l0,0      C744.82,483.19,744.6,482.95,744.6,482.68z M744.6,480.04c0-0.29,0.22-0.51,0.49-0.51l0,0c0.29,0,0.51,0.22,0.51,0.51l0,0      c0,0.27-0.22,0.49-0.51,0.49l0,0C744.82,480.54,744.6,480.32,744.6,480.04z M744.6,477.4c0-0.27,0.22-0.49,0.49-0.49l0,0      c0.29,0,0.51,0.22,0.51,0.49l0,0c0,0.27-0.22,0.49-0.51,0.49l0,0C744.82,477.89,744.6,477.67,744.6,477.4z M744.6,474.75      c0-0.27,0.22-0.49,0.49-0.49l0,0c0.29,0,0.51,0.22,0.51,0.49l0,0c0,0.27-0.22,0.49-0.51,0.49l0,0      C744.82,475.24,744.6,475.02,744.6,474.75z M744.6,472.1c0-0.27,0.22-0.49,0.49-0.49l0,0c0.29,0,0.51,0.22,0.51,0.49l0,0      c0,0.27-0.22,0.49-0.51,0.49l0,0C744.82,472.59,744.6,472.37,744.6,472.1z M744.6,469.46c0-0.29,0.22-0.51,0.49-0.51l0,0      c0.29,0,0.51,0.22,0.51,0.51l0,0c0,0.27-0.22,0.49-0.51,0.49l0,0C744.82,469.96,744.6,469.73,744.6,469.46z M744.6,466.81      c0-0.27,0.22-0.49,0.49-0.49l0,0c0.29,0,0.51,0.22,0.51,0.49l0,0c0,0.27-0.22,0.49-0.51,0.49l0,0      C744.82,467.31,744.6,467.09,744.6,466.81z M744.6,464.16c0-0.27,0.22-0.49,0.49-0.49l0,0c0.29,0,0.51,0.22,0.51,0.49l0,0      c0,0.27-0.22,0.49-0.51,0.49l0,0C744.82,464.66,744.6,464.44,744.6,464.16z M744.6,461.51c0-0.27,0.22-0.49,0.49-0.49l0,0      c0.29,0,0.51,0.22,0.51,0.49l0,0c0,0.27-0.22,0.49-0.51,0.49l0,0C744.82,462.01,744.6,461.79,744.6,461.51z"/>
			</g>
			<g>
				<path class="st6" d="M804.16,547.8c0-0.27,0.22-0.49,0.49-0.49l0,0c0.29,0,0.51,0.22,0.51,0.49l0,0c0,0.29-0.22,0.51-0.51,0.51      l0,0C804.38,548.31,804.16,548.09,804.16,547.8z M804.16,545.17c0-0.29,0.22-0.51,0.49-0.51l0,0c0.29,0,0.51,0.22,0.51,0.51l0,0      c0,0.27-0.22,0.49-0.51,0.49l0,0C804.38,545.66,804.16,545.44,804.16,545.17z M804.16,542.52c0-0.27,0.22-0.49,0.49-0.49l0,0      c0.29,0,0.51,0.22,0.51,0.49l0,0c0,0.27-0.22,0.49-0.51,0.49l0,0C804.38,543.01,804.16,542.79,804.16,542.52z M804.16,539.87      c0-0.27,0.22-0.49,0.49-0.49l0,0c0.29,0,0.51,0.22,0.51,0.49l0,0c0,0.27-0.22,0.49-0.51,0.49l0,0      C804.38,540.36,804.16,540.14,804.16,539.87z M804.16,537.22c0-0.27,0.22-0.49,0.49-0.49l0,0c0.29,0,0.51,0.22,0.51,0.49l0,0      c0,0.27-0.22,0.49-0.51,0.49l0,0C804.38,537.71,804.16,537.49,804.16,537.22z M804.16,534.58c0-0.29,0.22-0.51,0.49-0.51l0,0      c0.29,0,0.51,0.22,0.51,0.51l0,0c0,0.27-0.22,0.49-0.51,0.49l0,0C804.38,535.08,804.16,534.86,804.16,534.58z M804.16,531.94      c0-0.29,0.22-0.51,0.49-0.51l0,0c0.29,0,0.51,0.22,0.51,0.51l0,0c0,0.27-0.22,0.49-0.51,0.49l0,0      C804.38,532.43,804.16,532.21,804.16,531.94z M804.16,529.29c0-0.27,0.22-0.49,0.49-0.49l0,0c0.29,0,0.51,0.22,0.51,0.49l0,0      c0,0.27-0.22,0.49-0.51,0.49l0,0C804.38,529.78,804.16,529.56,804.16,529.29z M804.16,526.64c0-0.27,0.22-0.49,0.49-0.49l0,0      c0.29,0,0.51,0.22,0.51,0.49l0,0c0,0.27-0.22,0.49-0.51,0.49l0,0C804.38,527.13,804.16,526.91,804.16,526.64z M804.16,524      c0-0.29,0.22-0.51,0.49-0.51l0,0c0.29,0,0.51,0.22,0.51,0.51l0,0c0,0.26-0.22,0.49-0.51,0.49l0,0      C804.38,524.49,804.16,524.26,804.16,524z M804.16,521.35c0-0.29,0.22-0.49,0.49-0.49l0,0c0.29,0,0.51,0.21,0.51,0.49l0,0      c0,0.27-0.22,0.49-0.51,0.49l0,0C804.38,521.84,804.16,521.62,804.16,521.35z M804.16,518.7c0-0.27,0.22-0.49,0.49-0.49l0,0      c0.29,0,0.51,0.22,0.51,0.49l0,0c0,0.27-0.22,0.49-0.51,0.49l0,0C804.38,519.2,804.16,518.98,804.16,518.7z M804.16,516.05      c0-0.27,0.22-0.49,0.49-0.49l0,0c0.29,0,0.51,0.22,0.51,0.49l0,0c0,0.27-0.22,0.49-0.51,0.49l0,0      C804.38,516.55,804.16,516.33,804.16,516.05z"/>
			</g>
			<g>
				<path class="st6" d="M862.16,547.39c0-0.27,0.22-0.49,0.49-0.49l0,0c0.27,0,0.49,0.22,0.49,0.49l0,0c0,0.27-0.22,0.49-0.49,0.49      l0,0C862.38,547.88,862.16,547.66,862.16,547.39z M862.16,544.74c0-0.27,0.22-0.49,0.49-0.49l0,0c0.27,0,0.49,0.22,0.49,0.49      l0,0c0,0.27-0.22,0.49-0.49,0.49l0,0C862.38,545.23,862.16,545.01,862.16,544.74z M862.16,542.09c0-0.27,0.22-0.49,0.49-0.49      l0,0c0.27,0,0.49,0.22,0.49,0.49l0,0c0,0.27-0.22,0.49-0.49,0.49l0,0C862.38,542.58,862.16,542.36,862.16,542.09z       M862.16,539.44c0-0.27,0.22-0.49,0.49-0.49l0,0c0.27,0,0.49,0.22,0.49,0.49l0,0c0,0.29-0.22,0.51-0.49,0.51l0,0      C862.38,539.95,862.16,539.73,862.16,539.44z M862.16,536.8c0-0.29,0.22-0.51,0.49-0.51l0,0c0.27,0,0.49,0.22,0.49,0.51l0,0      c0,0.27-0.22,0.49-0.49,0.49l0,0C862.38,537.3,862.16,537.08,862.16,536.8z M862.16,534.16c0-0.27,0.22-0.51,0.49-0.51l0,0      c0.27,0,0.49,0.23,0.49,0.51l0,0c0,0.27-0.22,0.49-0.49,0.49l0,0C862.38,534.65,862.16,534.43,862.16,534.16z M862.16,531.51      c0-0.27,0.22-0.49,0.49-0.49l0,0c0.27,0,0.49,0.22,0.49,0.49l0,0c0,0.27-0.22,0.49-0.49,0.49l0,0      C862.38,532,862.16,531.78,862.16,531.51z M862.16,528.86c0-0.27,0.22-0.49,0.49-0.49l0,0c0.27,0,0.49,0.22,0.49,0.49l0,0      c0,0.27-0.22,0.51-0.49,0.51l0,0C862.38,529.36,862.16,529.13,862.16,528.86z M862.16,526.22c0-0.29,0.22-0.51,0.49-0.51l0,0      c0.27,0,0.49,0.22,0.49,0.51l0,0c0,0.27-0.22,0.49-0.49,0.49l0,0C862.38,526.71,862.16,526.49,862.16,526.22z M862.16,523.57      c0-0.27,0.22-0.49,0.49-0.49l0,0c0.27,0,0.49,0.22,0.49,0.49l0,0c0,0.27-0.22,0.49-0.49,0.49l0,0      C862.38,524.07,862.16,523.84,862.16,523.57z M862.16,520.92c0-0.27,0.22-0.49,0.49-0.49l0,0c0.27,0,0.49,0.22,0.49,0.49l0,0      c0,0.27-0.22,0.49-0.49,0.49l0,0C862.38,521.42,862.16,521.2,862.16,520.92z M862.16,518.27c0-0.27,0.22-0.49,0.49-0.49l0,0      c0.27,0,0.49,0.22,0.49,0.49l0,0c0,0.27-0.22,0.49-0.49,0.49l0,0C862.38,518.77,862.16,518.55,862.16,518.27z M862.16,515.62      c0-0.27,0.22-0.49,0.49-0.49l0,0c0.27,0,0.49,0.22,0.49,0.49l0,0c0,0.27-0.22,0.51-0.49,0.51l0,0      C862.38,516.13,862.16,515.9,862.16,515.62z M862.16,512.99c0-0.27,0.22-0.49,0.49-0.49l0,0c0.27,0,0.49,0.22,0.49,0.49l0,0      c0,0.27-0.22,0.49-0.49,0.49l0,0C862.38,513.48,862.16,513.26,862.16,512.99z M862.16,510.34c0-0.27,0.22-0.49,0.49-0.49l0,0      c0.27,0,0.49,0.22,0.49,0.49l0,0c0,0.27-0.22,0.49-0.49,0.49l0,0C862.38,510.83,862.16,510.61,862.16,510.34z M862.16,507.69      c0-0.27,0.22-0.49,0.49-0.49l0,0c0.27,0,0.49,0.22,0.49,0.49l0,0c0,0.27-0.22,0.49-0.49,0.49l0,0      C862.38,508.18,862.16,507.96,862.16,507.69z M862.16,505.04c0-0.27,0.22-0.49,0.49-0.49l0,0c0.27,0,0.49,0.22,0.49,0.49l0,0      c0,0.29-0.22,0.51-0.49,0.51l0,0C862.38,505.55,862.16,505.33,862.16,505.04z M862.16,502.41c0-0.27,0.22-0.51,0.49-0.51l0,0      c0.27,0,0.49,0.23,0.49,0.51l0,0c0,0.27-0.22,0.49-0.49,0.49l0,0C862.38,502.9,862.16,502.68,862.16,502.41z M862.16,499.76      c0-0.27,0.22-0.49,0.49-0.49l0,0c0.27,0,0.49,0.22,0.49,0.49l0,0c0,0.27-0.22,0.49-0.49,0.49l0,0      C862.38,500.25,862.16,500.03,862.16,499.76z M862.16,497.11c0-0.27,0.22-0.49,0.49-0.49l0,0c0.27,0,0.49,0.22,0.49,0.49l0,0      c0,0.27-0.22,0.49-0.49,0.49l0,0C862.38,497.6,862.16,497.38,862.16,497.11z M862.16,494.46c0-0.27,0.22-0.49,0.49-0.49l0,0      c0.27,0,0.49,0.22,0.49,0.49l0,0c0,0.27-0.22,0.51-0.49,0.51l0,0C862.38,494.97,862.16,494.73,862.16,494.46z M862.16,491.81      c0-0.27,0.22-0.49,0.49-0.49l0,0c0.27,0,0.49,0.22,0.49,0.49l0,0c0,0.29-0.22,0.51-0.49,0.51l0,0      C862.38,492.32,862.16,492.1,862.16,491.81z M862.16,489.17c0-0.27,0.22-0.51,0.49-0.51l0,0c0.27,0,0.49,0.23,0.49,0.51l0,0      c0,0.27-0.22,0.49-0.49,0.49l0,0C862.38,489.67,862.16,489.45,862.16,489.17z M862.16,486.52c0-0.27,0.22-0.49,0.49-0.49l0,0      c0.27,0,0.49,0.22,0.49,0.49l0,0c0,0.27-0.22,0.49-0.49,0.49l0,0C862.38,487.02,862.16,486.8,862.16,486.52z M862.16,483.88      c0-0.27,0.22-0.49,0.49-0.49l0,0c0.27,0,0.49,0.22,0.49,0.49l0,0c0,0.27-0.22,0.49-0.49,0.49l0,0      C862.38,484.37,862.16,484.15,862.16,483.88z M862.16,481.23c0-0.27,0.22-0.49,0.49-0.49l0,0c0.27,0,0.49,0.22,0.49,0.49l0,0      c0,0.27-0.22,0.51-0.49,0.51l0,0C862.38,481.73,862.16,481.5,862.16,481.23z M862.16,478.59c0-0.27,0.22-0.51,0.49-0.51l0,0      c0.27,0,0.49,0.23,0.49,0.51l0,0c0,0.27-0.22,0.49-0.49,0.49l0,0C862.38,479.08,862.16,478.86,862.16,478.59z M862.16,475.94      c0-0.27,0.22-0.49,0.49-0.49l0,0c0.27,0,0.49,0.22,0.49,0.49l0,0c0,0.27-0.22,0.49-0.49,0.49l0,0      C862.38,476.44,862.16,476.21,862.16,475.94z M862.16,473.29c0-0.27,0.22-0.49,0.49-0.49l0,0c0.27,0,0.49,0.22,0.49,0.49l0,0      c0,0.27-0.22,0.49-0.49,0.49l0,0C862.38,473.79,862.16,473.57,862.16,473.29z M862.16,470.64c0-0.27,0.22-0.49,0.49-0.49l0,0      c0.27,0,0.49,0.22,0.49,0.49l0,0c0,0.27-0.22,0.49-0.49,0.49l0,0C862.38,471.14,862.16,470.92,862.16,470.64z M862.16,468.01      c0-0.29,0.22-0.51,0.49-0.51l0,0c0.27,0,0.49,0.22,0.49,0.51l0,0c0,0.27-0.22,0.49-0.49,0.49l0,0      C862.38,468.5,862.16,468.28,862.16,468.01z M862.16,465.36c0-0.27,0.22-0.51,0.49-0.51l0,0c0.27,0,0.49,0.23,0.49,0.51l0,0      c0,0.27-0.22,0.49-0.49,0.49l0,0C862.38,465.85,862.16,465.63,862.16,465.36z M862.16,462.71c0-0.27,0.22-0.49,0.49-0.49l0,0      c0.27,0,0.49,0.22,0.49,0.49l0,0c0,0.27-0.22,0.49-0.49,0.49l0,0C862.38,463.2,862.16,462.98,862.16,462.71z M862.16,460.06      c0-0.27,0.22-0.49,0.49-0.49l0,0c0.27,0,0.49,0.22,0.49,0.49l0,0c0,0.27-0.22,0.49-0.49,0.49l0,0      C862.38,460.55,862.16,460.33,862.16,460.06z M862.16,457.41c0-0.27,0.22-0.49,0.49-0.49l0,0c0.27,0,0.49,0.22,0.49,0.49l0,0      c0,0.27-0.22,0.51-0.49,0.51l0,0C862.38,457.92,862.16,457.68,862.16,457.41z M862.16,454.78c0-0.29,0.22-0.51,0.49-0.51l0,0      c0.27,0,0.49,0.22,0.49,0.51l0,0c0,0.27-0.22,0.49-0.49,0.49l0,0C862.38,455.27,862.16,455.05,862.16,454.78z M862.16,452.13      c0-0.27,0.22-0.49,0.49-0.49l0,0c0.27,0,0.49,0.22,0.49,0.49l0,0c0,0.27-0.22,0.49-0.49,0.49l0,0      C862.38,452.62,862.16,452.4,862.16,452.13z M862.16,449.48c0-0.27,0.22-0.49,0.49-0.49l0,0c0.27,0,0.49,0.22,0.49,0.49l0,0      c0,0.27-0.22,0.49-0.49,0.49l0,0C862.38,449.97,862.16,449.75,862.16,449.48z M862.16,446.83c0-0.27,0.22-0.49,0.49-0.49l0,0      c0.27,0,0.49,0.22,0.49,0.49l0,0c0,0.27-0.22,0.49-0.49,0.49l0,0C862.38,447.32,862.16,447.1,862.16,446.83z M862.16,444.19      c0-0.29,0.22-0.51,0.49-0.51l0,0c0.27,0,0.49,0.22,0.49,0.51l0,0c0,0.27-0.22,0.49-0.49,0.49l0,0      C862.38,444.69,862.16,444.46,862.16,444.19z M862.16,441.54c0-0.27,0.22-0.49,0.49-0.49l0,0c0.27,0,0.49,0.22,0.49,0.49l0,0      c0,0.27-0.22,0.49-0.49,0.49l0,0C862.38,442.04,862.16,441.82,862.16,441.54z"/>
			</g>
			<g>
				<path class="st6" d="M920.15,546.61c0-0.27,0.22-0.49,0.49-0.49l0,0c0.27,0,0.49,0.22,0.49,0.49l0,0c0,0.27-0.22,0.49-0.49,0.49      l0,0C920.37,547.1,920.15,546.88,920.15,546.61z M920.15,543.96c0-0.27,0.22-0.49,0.49-0.49l0,0c0.27,0,0.49,0.22,0.49,0.49l0,0      c0,0.29-0.22,0.51-0.49,0.51l0,0C920.37,544.47,920.15,544.24,920.15,543.96z M920.15,541.32c0-0.29,0.22-0.51,0.49-0.51l0,0      c0.27,0,0.49,0.22,0.49,0.51l0,0c0,0.27-0.22,0.49-0.49,0.49l0,0C920.37,541.82,920.15,541.6,920.15,541.32z M920.15,538.67      c0-0.27,0.22-0.49,0.49-0.49l0,0c0.27,0,0.49,0.22,0.49,0.49l0,0c0,0.27-0.22,0.49-0.49,0.49l0,0      C920.37,539.17,920.15,538.95,920.15,538.67z M920.15,536.02c0-0.27,0.22-0.49,0.49-0.49l0,0c0.27,0,0.49,0.22,0.49,0.49l0,0      c0,0.27-0.22,0.49-0.49,0.49l0,0C920.37,536.52,920.15,536.3,920.15,536.02z M920.15,533.38c0-0.27,0.22-0.49,0.49-0.49l0,0      c0.27,0,0.49,0.22,0.49,0.49l0,0c0,0.27-0.22,0.51-0.49,0.51l0,0C920.37,533.88,920.15,533.65,920.15,533.38z M920.15,530.73      c0-0.27,0.22-0.49,0.49-0.49l0,0c0.27,0,0.49,0.22,0.49,0.49l0,0c0,0.29-0.22,0.51-0.49,0.51l0,0      C920.37,531.23,920.15,531.01,920.15,530.73z M920.15,528.09c0-0.27,0.22-0.49,0.49-0.49l0,0c0.27,0,0.49,0.22,0.49,0.49l0,0      c0,0.27-0.22,0.49-0.49,0.49l0,0C920.37,528.58,920.15,528.36,920.15,528.09z M920.15,525.44c0-0.27,0.22-0.49,0.49-0.49l0,0      c0.27,0,0.49,0.22,0.49,0.49l0,0c0,0.27-0.22,0.49-0.49,0.49l0,0C920.37,525.94,920.15,525.71,920.15,525.44z M920.15,522.79      c0-0.27,0.22-0.49,0.49-0.49l0,0c0.27,0,0.49,0.22,0.49,0.49l0,0c0,0.27-0.22,0.49-0.49,0.49l0,0      C920.37,523.29,920.15,523.07,920.15,522.79z M920.15,520.14c0-0.27,0.22-0.49,0.49-0.49l0,0c0.27,0,0.49,0.22,0.49,0.49l0,0      c0,0.29-0.22,0.51-0.49,0.51l0,0C920.37,520.65,920.15,520.43,920.15,520.14z M920.15,517.51c0-0.27,0.22-0.49,0.49-0.49l0,0      c0.27,0,0.49,0.22,0.49,0.49l0,0c0,0.27-0.22,0.49-0.49,0.49l0,0C920.37,518,920.15,517.78,920.15,517.51z M920.15,514.86      c0-0.27,0.22-0.49,0.49-0.49l0,0c0.27,0,0.49,0.22,0.49,0.49l0,0c0,0.27-0.22,0.49-0.49,0.49l0,0      C920.37,515.35,920.15,515.13,920.15,514.86z M920.15,512.21c0-0.27,0.22-0.49,0.49-0.49l0,0c0.27,0,0.49,0.22,0.49,0.49l0,0      c0,0.27-0.22,0.49-0.49,0.49l0,0C920.37,512.7,920.15,512.48,920.15,512.21z M920.15,509.57c0-0.29,0.22-0.51,0.49-0.51l0,0      c0.27,0,0.49,0.22,0.49,0.51l0,0c0,0.27-0.22,0.49-0.49,0.49l0,0C920.37,510.07,920.15,509.85,920.15,509.57z M920.15,506.92      c0-0.27,0.22-0.49,0.49-0.49l0,0c0.27,0,0.49,0.22,0.49,0.49l0,0c0,0.27-0.22,0.49-0.49,0.49l0,0      C920.37,507.42,920.15,507.2,920.15,506.92z M920.15,504.28c0-0.27,0.22-0.49,0.49-0.49l0,0c0.27,0,0.49,0.22,0.49,0.49l0,0      c0,0.27-0.22,0.49-0.49,0.49l0,0C920.37,504.77,920.15,504.55,920.15,504.28z M920.15,501.63c0-0.27,0.22-0.49,0.49-0.49l0,0      c0.27,0,0.49,0.22,0.49,0.49l0,0c0,0.27-0.22,0.49-0.49,0.49l0,0C920.37,502.12,920.15,501.9,920.15,501.63z M920.15,498.98      c0-0.27,0.22-0.49,0.49-0.49l0,0c0.27,0,0.49,0.22,0.49,0.49l0,0c0,0.27-0.22,0.51-0.49,0.51l0,0      C920.37,499.48,920.15,499.25,920.15,498.98z"/>
			</g>
			<g>
				<path class="st6" d="M978.57,547.28c0-0.27,0.21-0.51,0.49-0.51l0,0c0.27,0,0.49,0.23,0.49,0.51l0,0c0,0.27-0.22,0.49-0.49,0.49      l0,0C978.78,547.78,978.57,547.56,978.57,547.28z M978.57,544.63c0-0.27,0.21-0.49,0.49-0.49l0,0c0.27,0,0.49,0.22,0.49,0.49      l0,0c0,0.27-0.22,0.49-0.49,0.49l0,0C978.78,545.13,978.57,544.91,978.57,544.63z M978.57,541.98c0-0.27,0.21-0.49,0.49-0.49      l0,0c0.27,0,0.49,0.22,0.49,0.49l0,0c0,0.27-0.22,0.49-0.49,0.49l0,0C978.78,542.48,978.57,542.26,978.57,541.98z       M978.57,539.34c0-0.27,0.21-0.49,0.49-0.49l0,0c0.27,0,0.49,0.22,0.49,0.49l0,0c0,0.27-0.22,0.49-0.49,0.49l0,0      C978.78,539.83,978.57,539.61,978.57,539.34z M978.57,536.69c0-0.27,0.21-0.49,0.49-0.49l0,0c0.27,0,0.49,0.22,0.49,0.49l0,0      c0,0.29-0.22,0.51-0.49,0.51l0,0C978.78,537.19,978.57,536.97,978.57,536.69z M978.57,534.05c0-0.29,0.21-0.51,0.49-0.51l0,0      c0.27,0,0.49,0.22,0.49,0.51l0,0c0,0.27-0.22,0.49-0.49,0.49l0,0C978.78,534.54,978.57,534.32,978.57,534.05z M978.57,531.4      c0-0.27,0.21-0.49,0.49-0.49l0,0c0.27,0,0.49,0.22,0.49,0.49l0,0c0,0.27-0.22,0.49-0.49,0.49l0,0      C978.78,531.9,978.57,531.68,978.57,531.4z M978.57,528.75c0-0.27,0.21-0.49,0.49-0.49l0,0c0.27,0,0.49,0.22,0.49,0.49l0,0      c0,0.27-0.22,0.49-0.49,0.49l0,0C978.78,529.25,978.57,529.03,978.57,528.75z M978.57,526.1c0-0.27,0.21-0.49,0.49-0.49l0,0      c0.27,0,0.49,0.22,0.49,0.49l0,0c0,0.27-0.22,0.51-0.49,0.51l0,0C978.78,526.61,978.57,526.38,978.57,526.1z M978.57,523.47      c0-0.27,0.21-0.49,0.49-0.49l0,0c0.27,0,0.49,0.22,0.49,0.49l0,0c0,0.27-0.22,0.49-0.49,0.49l0,0      C978.78,523.96,978.57,523.74,978.57,523.47z M978.57,520.82c0-0.27,0.21-0.49,0.49-0.49l0,0c0.27,0,0.49,0.22,0.49,0.49l0,0      c0,0.27-0.22,0.49-0.49,0.49l0,0C978.78,521.31,978.57,521.09,978.57,520.82z M978.57,518.17c0-0.27,0.21-0.49,0.49-0.49l0,0      c0.27,0,0.49,0.22,0.49,0.49l0,0c0,0.27-0.22,0.49-0.49,0.49l0,0C978.78,518.66,978.57,518.44,978.57,518.17z M978.57,515.52      c0-0.27,0.21-0.49,0.49-0.49l0,0c0.27,0,0.49,0.22,0.49,0.49l0,0c0,0.29-0.22,0.51-0.49,0.51l0,0      C978.78,516.03,978.57,515.81,978.57,515.52z M978.57,512.88c0-0.29,0.21-0.51,0.49-0.51l0,0c0.27,0,0.49,0.22,0.49,0.51l0,0      c0,0.27-0.22,0.49-0.49,0.49l0,0C978.78,513.38,978.57,513.16,978.57,512.88z M978.57,510.24c0-0.27,0.21-0.51,0.49-0.51l0,0      c0.27,0,0.49,0.23,0.49,0.51l0,0c0,0.27-0.22,0.49-0.49,0.49l0,0C978.78,510.73,978.57,510.51,978.57,510.24z M978.57,507.59      c0-0.27,0.21-0.49,0.49-0.49l0,0c0.27,0,0.49,0.22,0.49,0.49l0,0c0,0.27-0.22,0.49-0.49,0.49l0,0      C978.78,508.08,978.57,507.86,978.57,507.59z M978.57,504.94c0-0.27,0.21-0.49,0.49-0.49l0,0c0.27,0,0.49,0.22,0.49,0.49l0,0      c0,0.27-0.22,0.49-0.49,0.49l0,0C978.78,505.43,978.57,505.21,978.57,504.94z M978.57,502.29c0-0.27,0.21-0.49,0.49-0.49l0,0      c0.27,0,0.49,0.22,0.49,0.49l0,0c0,0.27-0.22,0.51-0.49,0.51l0,0C978.78,502.8,978.57,502.56,978.57,502.29z M978.57,499.65      c0-0.27,0.21-0.51,0.49-0.51l0,0c0.27,0,0.49,0.23,0.49,0.51l0,0c0,0.27-0.22,0.49-0.49,0.49l0,0      C978.78,500.15,978.57,499.93,978.57,499.65z M978.57,497c0-0.27,0.21-0.49,0.49-0.49l0,0c0.27,0,0.49,0.22,0.49,0.49l0,0      c0,0.27-0.22,0.49-0.49,0.49l0,0C978.78,497.5,978.57,497.28,978.57,497z M978.57,494.35c0-0.27,0.21-0.49,0.49-0.49l0,0      c0.27,0,0.49,0.22,0.49,0.49l0,0c0,0.27-0.22,0.49-0.49,0.49l0,0C978.78,494.85,978.57,494.63,978.57,494.35z M978.57,491.71      c0-0.27,0.21-0.49,0.49-0.49l0,0c0.27,0,0.49,0.22,0.49,0.49l0,0c0,0.27-0.22,0.51-0.49,0.51l0,0      C978.78,492.21,978.57,491.98,978.57,491.71z M978.57,489.07c0-0.27,0.21-0.51,0.49-0.51l0,0c0.27,0,0.49,0.23,0.49,0.51l0,0      c0,0.27-0.22,0.49-0.49,0.49l0,0C978.78,489.56,978.57,489.34,978.57,489.07z M978.57,486.42c0-0.27,0.21-0.49,0.49-0.49l0,0      c0.27,0,0.49,0.22,0.49,0.49l0,0c0,0.27-0.22,0.49-0.49,0.49l0,0C978.78,486.91,978.57,486.69,978.57,486.42z M978.57,483.77      c0-0.27,0.21-0.49,0.49-0.49l0,0c0.27,0,0.49,0.22,0.49,0.49l0,0c0,0.27-0.22,0.49-0.49,0.49l0,0      C978.78,484.27,978.57,484.04,978.57,483.77z M978.57,481.12c0-0.27,0.21-0.49,0.49-0.49l0,0c0.27,0,0.49,0.22,0.49,0.49l0,0      c0,0.27-0.22,0.49-0.49,0.49l0,0C978.78,481.62,978.57,481.4,978.57,481.12z M978.57,478.47c0-0.27,0.21-0.49,0.49-0.49l0,0      c0.27,0,0.49,0.22,0.49,0.49l0,0c0,0.29-0.22,0.51-0.49,0.51l0,0C978.78,478.98,978.57,478.76,978.57,478.47z M978.57,475.84      c0-0.27,0.21-0.51,0.49-0.51l0,0c0.27,0,0.49,0.23,0.49,0.51l0,0c0,0.27-0.22,0.49-0.49,0.49l0,0      C978.78,476.33,978.57,476.11,978.57,475.84z M978.57,473.19c0-0.27,0.21-0.49,0.49-0.49l0,0c0.27,0,0.49,0.22,0.49,0.49l0,0      c0,0.27-0.22,0.49-0.49,0.49l0,0C978.78,473.68,978.57,473.46,978.57,473.19z M978.57,470.54c0-0.27,0.21-0.49,0.49-0.49l0,0      c0.27,0,0.49,0.22,0.49,0.49l0,0c0,0.27-0.22,0.49-0.49,0.49l0,0C978.78,471.03,978.57,470.81,978.57,470.54z M978.57,467.89      c0-0.27,0.21-0.49,0.49-0.49l0,0c0.27,0,0.49,0.22,0.49,0.49l0,0c0,0.27-0.22,0.51-0.49,0.51l0,0      C978.78,468.4,978.57,468.16,978.57,467.89z M978.57,465.25c0-0.27,0.21-0.51,0.49-0.51l0,0c0.27,0,0.49,0.23,0.49,0.51l0,0      c0,0.27-0.22,0.49-0.49,0.49l0,0C978.78,465.75,978.57,465.53,978.57,465.25z M978.57,462.61c0-0.27,0.21-0.49,0.49-0.49l0,0      c0.27,0,0.49,0.22,0.49,0.49l0,0c0,0.27-0.22,0.49-0.49,0.49l0,0C978.78,463.1,978.57,462.88,978.57,462.61z M978.57,459.96      c0-0.27,0.21-0.49,0.49-0.49l0,0c0.27,0,0.49,0.22,0.49,0.49l0,0c0,0.27-0.22,0.49-0.49,0.49l0,0      C978.78,460.45,978.57,460.23,978.57,459.96z M978.57,457.31c0-0.27,0.21-0.49,0.49-0.49l0,0c0.27,0,0.49,0.22,0.49,0.49l0,0      c0,0.27-0.22,0.51-0.49,0.51l0,0C978.78,457.81,978.57,457.58,978.57,457.31z M978.57,454.67c0-0.29,0.21-0.51,0.49-0.51l0,0      c0.27,0,0.49,0.22,0.49,0.51l0,0c0,0.27-0.22,0.49-0.49,0.49l0,0C978.78,455.16,978.57,454.94,978.57,454.67z M978.57,452.02      c0-0.29,0.21-0.51,0.49-0.51l0,0c0.27,0,0.49,0.22,0.49,0.51l0,0c0,0.27-0.22,0.49-0.49,0.49l0,0      C978.78,452.52,978.57,452.29,978.57,452.02z M978.57,449.37c0-0.27,0.21-0.49,0.49-0.49l0,0c0.27,0,0.49,0.22,0.49,0.49l0,0      c0,0.27-0.22,0.49-0.49,0.49l0,0C978.78,449.87,978.57,449.65,978.57,449.37z M978.57,446.72c0-0.27,0.21-0.49,0.49-0.49l0,0      c0.27,0,0.49,0.22,0.49,0.49l0,0c0,0.27-0.22,0.49-0.49,0.49l0,0C978.78,447.22,978.57,447,978.57,446.72z M978.57,444.08      c0-0.27,0.21-0.49,0.49-0.49l0,0c0.27,0,0.49,0.22,0.49,0.49l0,0c0,0.27-0.22,0.49-0.49,0.49l0,0      C978.78,444.57,978.57,444.35,978.57,444.08z M978.57,441.44c0-0.29,0.21-0.51,0.49-0.51l0,0c0.27,0,0.49,0.22,0.49,0.51l0,0      c0,0.27-0.22,0.49-0.49,0.49l0,0C978.78,441.93,978.57,441.71,978.57,441.44z M978.57,438.79c0-0.27,0.21-0.49,0.49-0.49l0,0      c0.27,0,0.49,0.22,0.49,0.49l0,0c0,0.27-0.22,0.49-0.49,0.49l0,0C978.78,439.28,978.57,439.06,978.57,438.79z M978.57,436.14      c0-0.27,0.21-0.49,0.49-0.49l0,0c0.27,0,0.49,0.22,0.49,0.49l0,0c0,0.27-0.22,0.49-0.49,0.49l0,0      C978.78,436.64,978.57,436.41,978.57,436.14z M978.57,433.49c0-0.27,0.21-0.49,0.49-0.49l0,0c0.27,0,0.49,0.22,0.49,0.49l0,0      c0,0.27-0.22,0.51-0.49,0.51l0,0C978.78,434,978.57,433.76,978.57,433.49z M978.57,430.86c0-0.29,0.21-0.51,0.49-0.51l0,0      c0.27,0,0.49,0.22,0.49,0.51l0,0c0,0.27-0.22,0.49-0.49,0.49l0,0C978.78,431.35,978.57,431.13,978.57,430.86z M978.57,428.21      c0-0.27,0.21-0.49,0.49-0.49l0,0c0.27,0,0.49,0.22,0.49,0.49l0,0c0,0.27-0.22,0.49-0.49,0.49l0,0      C978.78,428.7,978.57,428.48,978.57,428.21z M978.57,425.56c0-0.27,0.21-0.49,0.49-0.49l0,0c0.27,0,0.49,0.22,0.49,0.49l0,0      c0,0.27-0.22,0.49-0.49,0.49l0,0C978.78,426.05,978.57,425.83,978.57,425.56z M978.57,422.91c0-0.27,0.21-0.49,0.49-0.49l0,0      c0.27,0,0.49,0.22,0.49,0.49l0,0c0,0.27-0.22,0.49-0.49,0.49l0,0C978.78,423.4,978.57,423.18,978.57,422.91z"/>
			</g>
		</g>
		<g>
			<g>
				<path class="st6" d="M630.74,532.14v-3.11c13.71,0,20.53-9.17,27.74-18.88c7.36-9.9,14.96-20.13,30.24-20.13      c13.81,0,20.62-7.4,27.84-15.23c7.35-7.98,14.95-16.24,30.13-16.24c15.42,0,23.01,13.76,30.36,27.07      c7.23,13.09,14.05,25.46,27.63,25.46c13.45,0,20.62-17.75,27.55-34.92c7.32-18.12,14.89-36.86,30.44-36.86      c15.43,0,23.03,14.3,30.37,28.13c7.23,13.62,14.06,26.48,27.62,26.48c13.44,0,20.62-17.95,27.55-35.3      c7.32-18.32,14.89-37.26,30.44-37.26v3.11c-13.44,0-20.62,17.95-27.55,35.3c-7.32,18.32-14.89,37.26-30.44,37.26      c-15.44,0-23.03-14.3-30.37-28.13c-7.23-13.62-14.06-26.48-27.62-26.48c-13.45,0-20.62,17.75-27.55,34.92      c-7.32,18.12-14.89,36.86-30.44,36.86c-15.42,0-23.01-13.76-30.35-27.07c-7.23-13.09-14.05-25.46-27.63-25.46      c-13.81,0-20.62,7.4-27.84,15.23c-7.35,7.98-14.95,16.24-30.13,16.24c-13.71,0-20.53,9.17-27.74,18.88      C653.62,521.9,646.01,532.14,630.74,532.14z"/>
			</g>
			<g>
				<path class="st6" d="M635.5,530.51c0-1.77-1.43-3.21-3.2-3.21c-1.77,0-3.2,1.44-3.2,3.21c0,1.77,1.43,3.21,3.2,3.21      C634.06,533.73,635.5,532.29,635.5,530.51z"/>
			</g>
			<g>
				<path class="st6" d="M690.7,491.48c0-1.77-1.43-3.21-3.2-3.21c-1.77,0-3.2,1.44-3.2,3.21s1.43,3.21,3.2,3.21      C689.26,494.69,690.7,493.25,690.7,491.48z"/>
			</g>
			<g>
				<path class="st6" d="M748.3,460.36c0-1.77-1.43-3.21-3.2-3.21c-1.77,0-3.2,1.44-3.2,3.21c0,1.77,1.43,3.21,3.2,3.21      C746.86,463.57,748.3,462.14,748.3,460.36z"/>
			</g>
			<g>
				<path class="st6" d="M807.86,512.63c0-1.77-1.43-3.21-3.2-3.21c-1.77,0-3.2,1.44-3.2,3.21c0,1.77,1.43,3.21,3.2,3.21      C806.43,515.85,807.86,514.41,807.86,512.63z"/>
			</g>
			<g>
				<path class="st6" d="M865.85,440.86c0-1.77-1.43-3.21-3.2-3.21s-3.2,1.44-3.2,3.21c0,1.77,1.43,3.21,3.2,3.21      S865.85,442.63,865.85,440.86z"/>
			</g>
			<g>
				<path class="st6" d="M923.84,495.47c0-1.77-1.43-3.21-3.2-3.21c-1.77,0-3.2,1.44-3.2,3.21s1.43,3.21,3.2,3.21      C922.41,498.68,923.84,497.24,923.84,495.47z"/>
			</g>
			<g>
				<path class="st6" d="M981.84,422.91c0-1.77-1.43-3.21-3.2-3.21c-1.77,0-3.2,1.44-3.2,3.21s1.43,3.21,3.2,3.21      C980.41,426.12,981.84,424.69,981.84,422.91z"/>
			</g>
		</g>
		<g>
			<g>
				<rect x="634.76" y="362.96" class="st6" width="8.63" height="23.44"/>
			</g>
			<g>
				<rect x="648" y="352.65" class="st5" width="8.63" height="33.75"/>
			</g>
			<g>
				<rect x="634.69" y="389.54" class="st5" width="22.02" height="2.88"/>
			</g>
			<g>
				<rect x="666.63" y="349.25" class="st6" width="8.63" height="37.15"/>
			</g>
			<g>
				<rect x="679.87" y="338" class="st5" width="8.63" height="48.4"/>
			</g>
			<g>
				<rect x="666.57" y="389.54" class="st5" width="22.02" height="2.88"/>
			</g>
			<g>
				<rect x="698.51" y="349.25" class="st6" width="8.63" height="37.15"/>
			</g>
			<g>
				<rect x="711.75" y="360.03" class="st5" width="8.63" height="26.37"/>
			</g>
			<g>
				<rect x="698.44" y="389.54" class="st5" width="22.02" height="2.88"/>
			</g>
			<g>
				<rect x="730.38" y="367.82" class="st6" width="8.63" height="18.58"/>
			</g>
			<g>
				<rect x="743.62" y="360.97" class="st5" width="8.63" height="25.43"/>
			</g>
			<g>
				<rect x="730.31" y="389.54" class="st5" width="22.02" height="2.88"/>
			</g>
			<g>
				<rect x="762.25" y="352.65" class="st6" width="8.63" height="33.75"/>
			</g>
			<g>
				<rect x="775.49" y="340.53" class="st5" width="8.63" height="45.87"/>
			</g>
			<g>
				<rect x="762.19" y="389.54" class="st5" width="22.02" height="2.88"/>
			</g>
			<g>
				<rect x="794.13" y="354.4" class="st6" width="8.63" height="31.99"/>
			</g>
			<g>
				<rect x="807.37" y="369.52" class="st5" width="8.63" height="16.88"/>
			</g>
			<g>
				<rect x="794.06" y="389.54" class="st5" width="22.02" height="2.88"/>
			</g>
			<g>
				<rect x="826" y="350.65" class="st6" width="8.63" height="35.74"/>
			</g>
			<g>
				<rect x="839.24" y="358.15" class="st5" width="8.63" height="28.24"/>
			</g>
			<g>
				<rect x="825.93" y="389.54" class="st5" width="22.02" height="2.88"/>
			</g>
			<g>
				<rect x="857.87" y="358.15" class="st6" width="8.63" height="28.24"/>
			</g>
			<g>
				<rect x="871.11" y="367.82" class="st5" width="8.63" height="18.58"/>
			</g>
			<g>
				<rect x="857.8" y="389.54" class="st5" width="22.02" height="2.88"/>
			</g>
			<g>
				<rect x="889.74" y="352.65" class="st6" width="8.63" height="33.75"/>
			</g>
			<g>
				<rect x="902.98" y="341.26" class="st5" width="8.63" height="45.13"/>
			</g>
			<g>
				<rect x="889.68" y="389.54" class="st5" width="22.02" height="2.88"/>
			</g>
			<g>
				<rect x="921.62" y="354.4" class="st6" width="8.63" height="31.99"/>
			</g>
			<g>
				<rect x="934.86" y="346.6" class="st5" width="8.63" height="39.8"/>
			</g>
			<g>
				<rect x="921.55" y="389.54" class="st5" width="22.02" height="2.88"/>
			</g>
			<g>
				<rect x="953.49" y="335.39" class="st6" width="8.63" height="51.01"/>
			</g>
			<g>
				<rect x="966.73" y="343.4" class="st5" width="8.63" height="43"/>
			</g>
			<g>
				<rect x="953.42" y="389.54" class="st5" width="22.02" height="2.88"/>
			</g>
		</g>
	</g>
</g>
<g>
	<g>
		<g>
			<path class="st2" d="M125.56,994.93c-14-8.55,40.3-153.63,65.42-215.6c24.58-60.62-62.47-83.37-82.93-9.33     C97.56,807.95,97.02,948.22,125.56,994.93z"/>
			<path class="st7" d="M125.56,994.93c0,0-28.76-141.91,29.62-243.8"/>
		</g>
		<g>
			<path class="st8" d="M80.99,822.6c-43.85-62.14-87.53-11.22-58.46,31.72c29.07,42.94,103.19,140.15,103.19,140.15     S124.84,884.74,80.99,822.6z"/>
			<path class="st9" d="M125.73,994.47c0,0-34.81-102.65-81.35-165.61"/>
		</g>
		<g>
			<path class="st8" d="M196.15,835.94c59.72-35.42,70.01,13.11,44.04,43.77S119.54,985.99,119.54,985.99     S136.43,871.36,196.15,835.94z"/>
			<path class="st9" d="M120.33,980.38c0,0,25.41-58.09,105.75-126.84"/>
		</g>
	</g>
	<g>
		<rect x="90.86" y="971.91" class="st6" width="60.45" height="12.23"/>
		<polygon class="st6" points="101.64,1019.92 140.54,1019.92 148.1,984.14 94.08,984.14   "/>
	</g>
</g>
<g>
	<g>
		<g>
			<path class="st10" d="M812.86,997.35c-12.65-7.73,36.4-138.79,59.1-194.77c22.2-54.77-56.43-75.32-74.92-8.43     C787.57,828.43,787.08,955.15,812.86,997.35z"/>
			<path class="st7" d="M812.86,997.35c0,0-25.98-128.2,26.76-220.24"/>
		</g>
		<g>
			<path class="st5" d="M772.6,841.67c-39.61-56.13-79.07-10.14-52.81,28.66c26.26,38.79,93.22,126.61,93.22,126.61     S812.21,897.8,772.6,841.67z"/>
			<path class="st9" d="M813.01,996.93c0,0-31.45-92.74-73.49-149.61"/>
		</g>
		<g>
			<path class="st5" d="M876.63,853.71c53.95-32,63.25,11.84,39.79,39.54c-23.46,27.7-108.99,96.01-108.99,96.01     S822.68,885.71,876.63,853.71z"/>
			<path class="st9" d="M808.14,984.2c0,0,22.95-52.48,95.54-114.58"/>
		</g>
	</g>
	<g>
		<rect x="781.52" y="976.55" class="st6" width="54.61" height="11.04"/>
		<polygon class="st6" points="791.25,1019.92 826.39,1019.92 833.22,987.6 784.42,987.6   "/>
	</g>
</g>
<g>
	<path class="st11" d="M939.79,468.13l-9.29,11.88l-16.37-5.88c0.19-2.08-2.22-8.53-1.38-16.21c0.7-6.27,1.3-11.66,1.3-11.66   l23.61-10.31l0.71-0.31c-0.01,0.13-0.02,0.26-0.02,0.39c-0.07,1.03-0.11,2.04-0.13,3.03C937.82,456.67,939.79,468.13,939.79,468.13   z"/>
	<path class="st12" d="M938.35,436.04c-0.07,1.03-0.11,2.04-0.13,3.03c-4.57,5.37-15.31,16.83-25.47,18.86   c0.7-6.27,1.3-11.66,1.3-11.66l23.61-10.31L938.35,436.04z"/>
	<path class="st11" d="M909.02,448.35c0,0,30.89,1.41,31.48-17.84c0.58-19.25,4.96-32.04-14.74-33.75   c-19.7-1.72-23.76,5.52-25.51,11.89C898.49,415.03,901,447.48,909.02,448.35z"/>
	<path class="st8" d="M940.49,430.5c0,0-2.31-25.69-29.83-24.77c-27.52,0.92-15.61-25.11,8.03-28.94c0,0-2.47,9.17,12.41,10.62   C962.33,390.45,943.27,426.43,940.49,430.5z"/>
	<path class="st11" d="M940.31,430.56c0,0,3.76-8.6,2.15-11.82c-1.61-3.22-4.36,3.19-4.36,3.19s-2.63,6.48-1.55,8.09   C937.62,431.63,940.31,430.56,940.31,430.56z"/>
	<g>
		<polygon class="st11" points="963.55,999.78 984.87,999.14 981.05,968.12 961.32,971.14   "/>
		<g>
			<path class="st13" d="M992.24,1019.34c2.44-8.17-3.29-14.11-5.09-21.32c-1.11-4.45-23.45-7.2-25.67,2.55     c-2.12,9.33-0.42,18.77-0.42,18.77H992.24z"/>
		</g>
	</g>
	<g>
		<polygon class="st11" points="844.84,1000.57 866.69,1000.57 868.83,965.19 847.52,963.84   "/>
		<path class="st13" d="M866.69,998.03h-20.36c0,0-2.23,0-8.91,7c-6.68,7-22.62,0.32-29.94,14.32h60.81    C868.28,1019.34,874.32,1008.21,866.69,998.03z"/>
	</g>
	<g>
		<polygon class="st8" points="960.59,632.11 986.78,986.57 960.59,986.57 915.06,728.63 870.97,986.57 845.09,986.57     869.08,632.11   "/>
	</g>
	<g>
		<path class="st11" d="M804.76,499.49c0,0-5.19-8.36-4.44-13.07c0.75-4.7,0.75-10.38-1.82-13.59c-2.57-3.21-1.89-7-4.6-5.96    c-0.86,0.33-0.45,6.02,0.79,8.71c0,0-7.68-15.62-8.79-17.39c-1.11-1.77-2.91-0.64-2.77,0.82c0,0-0.84-1.65-2.24-0.94    c-1.2,0.61-0.6,2.52-0.55,3.35c0,0-1.83,0.15-1.6,2.18c0.15,1.3,0.37,2.15,0.57,2.92c0,0-0.85,0.17-1.05,1.71    c-0.14,1.09,0.14,3.24,0.85,4.85c1.71,3.88,0.48,4.7,2.28,8.6c1.79,3.9,6.29,4.34,8.32,11.85c2.03,7.51,2.83,9.63,2.83,9.63    L804.76,499.49z"/>
		<g>
			<path class="st6" d="M869.86,481.43c-5.08,0.77-23.05,38.36-32.92,56.18c-9.86,17.82-9.86,17.82-9.86,17.82l-23.86-61.09     c0,0-7.95-1.27-12.73,5.73c0,0,12.73,82.41,15.91,91.64c3.18,9.23,13.05,15.91,30.55-6.05c17.5-21.95,47.73-64.59,50.27-69.36     C889.76,511.52,899.24,476.98,869.86,481.43z"/>
		</g>
	</g>
	<g>
		<g>
			<path class="st6" d="M966.45,557.33c-8.27,44.24-5.85,74.78-5.85,74.78h-91.52c0,0-3.8-142.81-1.7-147.65     c3.82-8.77,42.19-20.92,42.19-20.92l8.53,12.94l23.95-12.85c0,0,26.62,7.79,32.66,9.38c1.79,0.48,2.51,4.17,2.42,10.28     C976.98,497.84,972.27,526.18,966.45,557.33z"/>
		</g>
		<path class="st6" d="M966.45,557.33c-8.27,44.24-5.85,74.78-5.85,74.78h-10.62c0,0,2.88-108.97,18.7-143.96    c2.38-5.28,5.28-6.54,8.46-4.86C976.98,497.84,972.27,526.18,966.45,557.33z"/>
	</g>
	<rect x="868.96" y="632.11" class="st14" width="91.63" height="8.03"/>
	<g>
		<g>
			<path class="st5" d="M886.61,594.76H776.04l-26.49-72.79c-1.12-3.09,1.16-6.36,4.45-6.36h100.49c1.99,0,3.77,1.25,4.45,3.12     L886.61,594.76z"/>
		</g>
		<g>
			<path class="st13" d="M952.33,601.64H842.45c-1.9,0-3.44-1.54-3.44-3.44l0,0c0-1.9,1.54-3.44,3.44-3.44h109.89     c1.9,0,3.44,1.54,3.44,3.44l0,0C955.77,600.1,954.23,601.64,952.33,601.64z"/>
		</g>
		<g>
			<path class="st8" d="M886.27,601.64H776.38c-1.9,0-3.44-1.54-3.44-3.44l0,0c0-1.9,1.54-3.44,3.44-3.44h109.89     c1.9,0,3.44,1.54,3.44,3.44l0,0C889.71,600.1,888.17,601.64,886.27,601.64z"/>
		</g>
	</g>
	<path class="st6" d="M912.57,460.44c0,0,0.03,9.81,5.54,14.44c0,0-5.84,4.64-9.11,10.1c-2.07-11.63,0.59-21.44,0.59-21.44   L912.57,460.44z"/>
	<path class="st6" d="M938.7,460.08c0,0-7.71,12.36-20.59,14.8c0,0,4.26,7.1,6.7,13.28c6.41-4.36,15.45-15.45,17.24-24.53   L938.7,460.08z"/>
	<path class="st15" d="M962.03,506.86l5.23,61.21l-10.46,7.31C956.8,575.37,962.59,524.19,962.03,506.86z"/>
	<g>
		<path class="st11" d="M889.81,590.1c0,0-9.5-0.46-13.11-2.45c-3.61-1.99-12.7-2.37-14.57-2.37c-1.87,0-0.12,3.11,2.12,3.49    c2.24,0.37,4.98,2.37,4.98,2.37s-14.07,1.25-17.56,1c-3.49-0.25-7.6,0.75-6.35,2.49c1.25,1.74,3.36,1.87,3.36,1.87    s1,2.62,2.99,2.99c0,0,0.87,1.87,3.61,2.24c0,0,2.62,1.25,3.74,1.25c0,0,10.21,1.99,16.06,1c5.85-1,15.92-1.59,15.92-1.59    L889.81,590.1z"/>
		<g>
			<path class="st6" d="M974.36,472.92c0,0,15.32,2.32,21.68,27.14c6.36,24.82-6.35,77.29-11.01,94.7     c-2.73,10.19-95.44,10.19-95.44,10.19s-1.74-10.76-1.74-17.85c0,0,63.29-10.31,76.66-18.49c0,0-2.85-42.36-3.48-58.68     C960.4,493.38,958.56,474.63,974.36,472.92z"/>
		</g>
	</g>
</g>
<g>
	<g>
		<path class="st11" d="M327.31,504.36l6.27-7.16c0,0,4.09-7.5,5.86-10.22c1.77-2.73,7.36-7.77,8.45-9    c1.09-1.23,1.98,1.09,0.82,3.27c-1.16,2.18-2.92,6.91-2.92,6.91s12.05-8.2,15.59-10.25c3.54-2.04,5.11-0.48,4.84,0.41    c0,0,2.18,1.77,0.41,3.48c0,0,1.91,1.98-0.75,4.09c0,0,1.98,1.98-1.84,4.43c-3.82,2.45-6,9.95-11.86,12.27    c-5.86,2.32-12.27,7.01-15.75,11.03L327.31,504.36z"/>
		<g>
			<path class="st6" d="M227.28,507.56c0,0,9.4,9.23,26.95,26.8c15.83,15.85,33.21,25.98,42.04,20.44     c8.83-5.54,48.02-46.7,48.02-46.7l-11.93-11.75l-40.97,35.16c0,0-26.92-25.75-32.54-30.04c-5.62-4.29-24.56-12.34-30.52-5.64     C222.36,502.53,227.28,507.56,227.28,507.56z"/>
		</g>
	</g>
	<g>
		<polygon class="st11" points="229.45,993.62 245.48,993.62 247.58,969.96 228,968.01   "/>
		<g>
			<path class="st13" d="M229.45,993.62c0,0-4.03,5.11-2.4,16.41c0.77,5.36,12.44,5.01,32.14,5.01c19.7,0,15.29,0,15.29,0     s5.71-6.17-3.37-8.98c-22.16-6.86-25.62-12.44-25.62-12.44H229.45z"/>
		</g>
	</g>
	<g>
		<polygon class="st11" points="178.53,997.66 159.59,997.1 162.98,969.54 180.51,972.22   "/>
		<g>
			<path class="st13" d="M153.04,1015.05c-2.17-7.26,2.92-12.53,4.52-18.94c0.99-3.96,20.84-6.39,22.8,2.26     c1.88,8.29,0.38,16.68,0.38,16.68H153.04z"/>
		</g>
	</g>
	<g>
		<path class="st2" d="M239.16,422.34c0,0,10.25,3.09,9.43,17.56c-0.82,14.47-4.4,21.57-0.15,36.72    c4.25,15.15,6.67,35.05-19.35,33.35c-26.02-1.7-33.8-3.86-42.57,1.24c-8.77,5.11-33.3-17.26-21.39-32.49    c11.92-15.23,16.88-24.21,14.63-37.52c-2.25-13.32,7.98-26.21,24.24-30.17C217.65,407.7,245.07,406.33,239.16,422.34z"/>
	</g>
	<g>
		<g>
			<path class="st8" d="M170.77,559.38c3.38,17.32,3.01,30.09,3.02,60.39h75.27c0,0-2.08-24.42,1.31-39.42     c0.61-2.75,1.41-5.1,2.45-6.75c5.36-8.57,10.17-16.57,10.22-25.4c0-2.13-0.27-4.35-0.88-6.62c-3.1-11.55-7.76-37.14-13.56-44.24     c-5.79-7.12-34.61-6.21-34.61-6.21s-37.69,0.11-48.98,6.43c-3.01,1.68-4.16,5.47-4.4,10.01     C159.83,521.68,168.08,545.56,170.77,559.38z"/>
		</g>
	</g>
	<g>
		<g>
			<path class="st11" d="M232.83,491.94c0,0,0.07,5.21-1.97,11.21c-2.52,7.4-11.27,10.54-17.87,6.36     c-6.58-4.17-14.69-10.36-18.84-17.53C194.15,491.97,214.08,489.78,232.83,491.94z"/>
			<path class="st11" d="M228.51,491.52c0,0-5.23-0.53-5.23-6.67c0-6.14-0.61-17.81-0.61-17.81l-19.68,1.67     c0,0,1.67,19.28-1.5,22.81c-3.17,3.54-3.17,3.54-3.17,3.54S225.34,499.65,228.51,491.52z"/>
		</g>
		<path class="st12" d="M223.27,482.38c0,0-12.94,2-19.85-3.5l-0.44-10.17l20.28,4.39V482.38z"/>
	</g>
	<g>
		<path class="st11" d="M239.19,430.59c0,0,10.86,49.44-13.98,51.49c-24.84,2.05-26.43-23.74-26.43-23.74s-6.04-2.32-6.28-7.85    c-0.23-5.36,6.76-2.4,6.76-2.4s-3.81-20.24,11.63-24.8C227.12,418.49,237.11,423.48,239.19,430.59z"/>
		<g>
			<path class="st2" d="M237.66,424.52c0,0-9.07,25.71-38.4,23.56c0,0-4.98-19.74,1.16-26.99     C206.55,413.84,230.59,412.02,237.66,424.52z"/>
		</g>
	</g>
	<g>
		<path class="st5" d="M173.79,619.77c0,0-26.53,51.76-18.11,363.83l29.09,2.9c0,0,18.21-212.75,24-276.25    c0.67,4.41,17.25,276.25,17.25,276.25h23.53c0,0,30.49-330.37-0.5-366.73H173.79z"/>
	</g>
	<path class="st6" d="M194.15,491.97c0,0,10.78,85.62,8.84,127.8c-1.94,42.18-43.51,87.09-43.51,87.09s4.15-49.78,9.2-82.18   s1.25-69.92-3.11-83.79c-4.36-13.86-9.41-40.37-0.56-43.34C173.86,494.59,194.15,491.97,194.15,491.97z"/>
	<g>
		<path class="st11" d="M183.69,624.68l8.89,3.4c0,0,8.45,1.24,11.62,1.95c3.17,0.72,9.84,4.21,11.37,4.81    c1.53,0.6-0.34,2.23-2.78,1.9c-2.45-0.33-7.49-0.34-7.49-0.34s11.87,8.45,15.02,11.07c3.15,2.61,2.22,4.63,1.29,4.68    c0,0-0.91,2.66-3.12,1.59c0,0-1.19,2.48-4.1,0.72c0,0-1.17,2.54-4.79-0.19c-3.63-2.73-11.41-2.17-15.62-6.87    c-4.21-4.69-10.83-9.08-15.8-10.95L183.69,624.68z"/>
		<g>
			<path class="st6" d="M167.56,497.24c0,0-15.96,8.21-26.57,30.67c-10.76,22.79-20.53,45.72-20.47,55.82     c0.07,10.42,61.4,56.38,61.4,56.38l8.92-14.74l-42-42.02c-1.79-1.79-2.25-4.53-1.13-6.8c4.92-10.02,18.09-36.73,21.53-42.35     c4.72-7.71,13.67-23.21,7.74-29.94C171.04,497.54,167.56,497.24,167.56,497.24z"/>
		</g>
	</g>
	<path class="st6" d="M232.83,491.94c0,0,16.95,27.81,12.25,56.61c-4.7,28.8-6.14,29.98-5.71,61.13   c0.42,31.15,13.43,81.65,23.39,100.48c0,0,3.16-36.67-4.32-70.04c-7.47-33.38-9.06-41.39-7.33-53.95   c1.73-12.56,8.39-19.58,11.18-31.88c2.79-12.3-0.76-19.9-3.74-30.65c-2.98-10.74-7.8-26.61-7.8-26.61S241.06,492.67,232.83,491.94z   "/>
</g>
<g>
	<g>
		<path class="st3" d="M53.84,1024.92c8.67,0,17.34,0,26.01,0c23.6,0,47.2,0,70.79,0c34.9,0,69.8,0,104.7,0    c42.58,0,85.16,0,127.74,0c46.47,0,92.94,0,139.41,0c47.24,0,94.47,0,141.71,0c43.73,0,87.47,0,131.2,0c37.09,0,74.19,0,111.28,0    c26.67,0,53.33,0,80,0c12.59,0,25.21,0.24,37.81,0c0.55-0.01,1.1,0,1.65,0c6.43,0,6.45-10,0-10c-8.67,0-17.34,0-26.01,0    c-23.6,0-47.2,0-70.79,0c-34.9,0-69.8,0-104.7,0c-42.58,0-85.16,0-127.74,0c-46.47,0-92.94,0-139.41,0c-47.24,0-94.47,0-141.71,0    c-43.73,0-87.47,0-131.2,0c-37.09,0-74.19,0-111.28,0c-26.67,0-53.33,0-80,0c-12.59,0-25.21-0.24-37.81,0c-0.55,0.01-1.1,0-1.65,0    C47.41,1014.92,47.4,1024.92,53.84,1024.92L53.84,1024.92z"/>
	</g>
</g>
</svg>